:FULLY-SPECIFIED
:FORCE-ALL-JOINTS-BE-3DOF
:DEGREES
713
root 5.53939 21.5033 7.37602 -44.6884 -88.7415 60.8466
lfemur -34.9956 -12.498 9.82684
ltibia 72.9483 0 0
lfoot 5.88796 -7.45612 0
ltoes 31.4781 0 0
rfemur -32.4126 -0.866112 -0.557946
rtibia 85.7264 0 0
rfoot 20.2108 -17.8752 0
rtoes 38.6021 0 0
lowerback 6.25975 -0.823868 -1.884
upperback -1.21556 -1.33879 -1.58353
thorax -4.76869 -0.63977 -0.445101
lowerneck -6.74521 -6.14589 -2.26055
upperneck -0.212131 -8.17026 4.91549
head 1.39624 -4.02082 1.64825
lclavicle -1.2921e-14 -4.41302e-14 0
lhumerus 1.71129 -20.9172 15.4022
lradius 45.9936 0 0
lwrist 23.5511 0 0
lhand -21.4933 -3.18174 0
lfingers 7.12502 0 0
lthumb 4.89802 26.7416 0
rclavicle -1.2921e-14 -4.41302e-14 0
rhumerus -12.3454 -3.453 -26.3227
rradius 99.2425 0 0
rwrist -9.46951 0 0
rhand -28.5883 -36.048 0
rfingers 7.12502 0 0
rthumb -1.95411 -786.019 0
714
root 5.51632 21.5248 7.5857 -114.811 -88.5347 131.091
lfemur -34.2732 -13.513 9.15372
ltibia 69.0394 0 0
lfoot 6.68345 -8.29926 0
ltoes 30.7132 0 0
rfemur -33.219 -1.14835 -1.23526
rtibia 91.4966 0 0
rfoot 20.8563 -19.1874 0
rtoes 40.821 0 0
lowerback 6.14711 -0.699867 -1.84115
upperback -1.26194 -1.16723 -1.5753
thorax -4.75466 -0.555866 -0.47938
lowerneck -6.80973 -6.29731 -2.34534
upperneck -0.317173 -8.36323 4.91648
head 1.38488 -4.11871 1.65447
lclavicle 3.77691e-15 -7.95139e-16 0
lhumerus -0.00677256 -20.6113 16.0088
lradius 45.2287 0 0
lwrist 22.9737 0 0
lhand -21.8284 -3.2593 0
lfingers 7.12502 0 0
lthumb 4.57444 26.6713 0
rclavicle 3.77691e-15 -7.95139e-16 0
rhumerus -11.6072 -2.62759 -27.0112
rradius 99.2225 0 0
rwrist -9.63092 0 0
rhand -27.5551 -34.9797 0
rfingers 7.12502 0 0
rthumb -0.956194 -784.957 0
715
root 5.45689 21.4407 7.75594 -114 -85.7868 133.607
lfemur -34.3689 -12.9723 8.72056
ltibia 68.7822 0 0
lfoot 6.19448 -7.80583 0
ltoes 30.5916 0 0
rfemur -32.9392 -1.55506 -0.854946
rtibia 90.8953 0 0
rfoot 20.2145 -19.4601 0
rtoes 39.8187 0 0
lowerback 6.06626 -0.613976 -1.83573
upperback -1.26049 -1.04938 -1.61498
thorax -4.70291 -0.497062 -0.527118
lowerneck -6.78492 -6.31 -2.32574
upperneck -0.35809 -8.37786 4.93087
head 1.368 -4.12573 1.65678
lclavicle 3.60337e-15 -1.11067e-15 0
lhumerus -0.889181 -20.469 17.2559
lradius 45.6333 0 0
lwrist 22.7866 0 0
lhand -21.7947 -3.30794 0
lfingers 7.12502 0 0
lthumb 4.60694 26.6218 0
rclavicle 3.60337e-15 -1.11067e-15 0
rhumerus -11.8836 -1.81036 -28.3395
rradius 98.9197 0 0
rwrist -9.37177 0 0
rhand -27.4732 -34.7361 0
rfingers 7.12502 0 0
rthumb -0.877059 -784.713 0
716
root 5.39746 21.3567 7.92618 -113.189 -83.0389 136.123
lfemur -34.4646 -12.4315 8.2874
ltibia 68.525 0 0
lfoot 5.70551 -7.31239 0
ltoes 30.47 0 0
rfemur -32.6594 -1.96176 -0.474633
rtibia 90.2941 0 0
rfoot 19.5727 -19.7328 0
rtoes 38.8164 0 0
lowerback 5.98541 -0.528085 -1.83031
upperback -1.25903 -0.931535 -1.65466
thorax -4.65116 -0.438257 -0.574855
lowerneck -6.76011 -6.32269 -2.30613
upperneck -0.399007 -8.39248 4.94525
head 1.35112 -4.13275 1.6591
lclavicle 3.42983e-15 -1.4262e-15 0
lhumerus -1.77159 -20.3267 18.5029
lradius 46.0379 0 0
lwrist 22.5994 0 0
lhand -21.7611 -3.35658 0
lfingers 7.12502 0 0
lthumb 4.63945 26.5723 0
rclavicle 3.42983e-15 -1.4262e-15 0
rhumerus -12.1601 -0.99314 -29.6678
rradius 98.6168 0 0
rwrist -9.11262 0 0
rhand -27.3912 -34.4924 0
rfingers 7.12502 0 0
rthumb -0.797925 -784.469 0
717
root 5.33803 21.2726 8.09642 -112.378 -80.2909 138.639
lfemur -34.5603 -11.8908 7.85423
ltibia 68.2679 0 0
lfoot 5.21653 -6.81896 0
ltoes 30.3484 0 0
rfemur -32.3796 -2.36847 -0.094319
rtibia 89.6928 0 0
rfoot 18.9309 -20.0055 0
rtoes 37.8142 0 0
lowerback 5.90456 -0.442193 -1.82489
upperback -1.25758 -0.813688 -1.69434
thorax -4.59942 -0.379453 -0.622593
lowerneck -6.73529 -6.33538 -2.28653
upperneck -0.439924 -8.40711 4.95964
head 1.33424 -4.13977 1.66141
lclavicle 3.25628e-15 -1.74173e-15 0
lhumerus -2.654 -20.1845 19.75
lradius 46.4424 0 0
lwrist 22.4123 0 0
lhand -21.7274 -3.40523 0
lfingers 7.12502 0 0
lthumb 4.67195 26.5228 0
rclavicle 3.25628e-15 -1.74173e-15 0
rhumerus -12.4365 -0.175914 -30.9961
rradius 98.314 0 0
rwrist -8.85347 0 0
rhand -27.3093 -34.2488 0
rfingers 7.12502 0 0
rthumb -0.71879 -784.224 0
718
root 5.2786 21.1886 8.26667 -111.567 -77.543 141.155
lfemur -34.656 -11.35 7.42107
ltibia 68.0107 0 0
lfoot 4.72756 -6.32553 0
ltoes 30.2268 0 0
rfemur -32.0999 -2.77517 0.285995
rtibia 89.0915 0 0
rfoot 18.2891 -20.2782 0
rtoes 36.8119 0 0
lowerback 5.8237 -0.356302 -1.81946
upperback -1.25613 -0.695841 -1.73401
thorax -4.54767 -0.320648 -0.67033
lowerneck -6.71048 -6.34807 -2.26692
upperneck -0.480841 -8.42173 4.97402
head 1.31736 -4.1468 1.66372
lclavicle 3.08274e-15 -2.05726e-15 0
lhumerus -3.53641 -20.0422 20.997
lradius 46.847 0 0
lwrist 22.2251 0 0
lhand -21.6937 -3.45387 0
lfingers 7.12502 0 0
lthumb 4.70446 26.4733 0
rclavicle 3.08274e-15 -2.05726e-15 0
rhumerus -12.7129 0.641311 -32.3245
rradius 98.0111 0 0
rwrist -8.59432 0 0
rhand -27.2273 -34.0052 0
rfingers 7.12502 0 0
rthumb -0.639655 -783.98 0
719
root 5.21917 21.1045 8.43691 -110.756 -74.7951 143.671
lfemur -34.7517 -10.8093 6.98791
ltibia 67.7535 0 0
lfoot 4.23859 -5.8321 0
ltoes 30.1052 0 0
rfemur -31.8201 -3.18188 0.666308
rtibia 88.4902 0 0
rfoot 17.6473 -20.5509 0
rtoes 35.8096 0 0
lowerback 5.74285 -0.270411 -1.81404
upperback -1.25468 -0.577993 -1.77369
thorax -4.49592 -0.261844 -0.718068
lowerneck -6.68567 -6.36076 -2.24732
upperneck -0.521758 -8.43636 4.98841
head 1.30048 -4.15382 1.66604
lclavicle 2.9092e-15 -2.37279e-15 0
lhumerus -4.41881 -19.8999 22.2441
lradius 47.2516 0 0
lwrist 22.038 0 0
lhand -21.6601 -3.50251 0
lfingers 7.12502 0 0
lthumb 4.73696 26.4238 0
rclavicle 2.9092e-15 -2.37279e-15 0
rhumerus -12.9894 1.45854 -33.6528
rradius 97.7083 0 0
rwrist -8.33517 0 0
rhand -27.1454 -33.7615 0
rfingers 7.12502 0 0
rthumb -0.560521 -783.736 0
720
root 5.15974 21.0204 8.60715 -109.945 -72.0472 146.187
lfemur -34.8474 -10.2685 6.55475
ltibia 67.4963 0 0
lfoot 3.74962 -5.33866 0
ltoes 29.9836 0 0
rfemur -31.5403 -3.58858 1.04662
rtibia 87.889 0 0
rfoot 17.0055 -20.8236 0
rtoes 34.8073 0 0
lowerback 5.662 -0.18452 -1.80862
upperback -1.25322 -0.460146 -1.81337
thorax -4.44417 -0.20304 -0.765806
lowerneck -6.66086 -6.37345 -2.22771
upperneck -0.562676 -8.45099 5.00279
head 1.2836 -4.16084 1.66835
lclavicle 2.73566e-15 -2.68833e-15 0
lhumerus -5.30122 -19.7576 23.4911
lradius 47.6562 0 0
lwrist 21.8508 0 0
lhand -21.6264 -3.55115 0
lfingers 7.12502 0 0
lthumb 4.76947 26.3743 0
rclavicle 2.73566e-15 -2.68833e-15 0
rhumerus -13.2658 2.27576 -34.9811
rradius 97.4054 0 0
rwrist -8.07602 0 0
rhand -27.0635 -33.5179 0
rfingers 7.12502 0 0
rthumb -0.481386 -783.492 0
721
root 5.10031 20.9364 8.77739 -109.134 -69.2993 148.703
lfemur -34.9431 -9.72777 6.12158
ltibia 67.2391 0 0
lfoot 3.26064 -4.84523 0
ltoes 29.862 0 0
rfemur -31.2605 -3.99529 1.42694
rtibia 87.2877 0 0
rfoot 16.3636 -21.0963 0
rtoes 33.805 0 0
lowerback 5.58115 -0.0986284 -1.8032
upperback -1.25177 -0.342299 -1.85305
thorax -4.39243 -0.144235 -0.813543
lowerneck -6.63605 -6.38614 -2.20811
upperneck -0.603593 -8.46561 5.01718
head 1.26672 -4.16786 1.67066
lclavicle 2.56211e-15 -3.00386e-15 0
lhumerus -6.18363 -19.6154 24.7382
lradius 48.0608 0 0
lwrist 21.6637 0 0
lhand -21.5927 -3.59979 0
lfingers 7.12502 0 0
lthumb 4.80197 26.3248 0
rclavicle 2.56211e-15 -3.00386e-15 0
rhumerus -13.5422 3.09299 -36.3094
rradius 97.1026 0 0
rwrist -7.81687 0 0
rhand -26.9815 -33.2743 0
rfingers 7.12502 0 0
rthumb -0.402251 -783.248 0
722
root 5.04088 20.8523 8.94763 -108.323 -66.5513 151.219
lfemur -35.0388 -9.18702 5.68842
ltibia 66.9819 0 0
lfoot 2.77167 -4.3518 0
ltoes 29.7404 0 0
rfemur -30.9807 -4.40199 1.80725
rtibia 86.6864 0 0
rfoot 15.7218 -21.369 0
rtoes 32.8028 0 0
lowerback 5.5003 -0.0127372 -1.79778
upperback -1.25032 -0.224452 -1.89273
thorax -4.34068 -0.085431 -0.861281
lowerneck -6.61123 -6.39883 -2.1885
upperneck -0.64451 -8.48024 5.03156
head 1.24984 -4.17488 1.67297
lclavicle 2.38857e-15 -3.31939e-15 0
lhumerus -7.06604 -19.4731 25.9852
lradius 48.4654 0 0
lwrist 21.4765 0 0
lhand -21.5591 -3.64844 0
lfingers 7.12502 0 0
lthumb 4.83448 26.2753 0
rclavicle 2.38857e-15 -3.31939e-15 0
rhumerus -13.8187 3.91021 -37.6377
rradius 96.7997 0 0
rwrist -7.55772 0 0
rhand -26.8996 -33.0306 0
rfingers 7.12502 0 0
rthumb -0.323117 -783.003 0
723
root 4.98145 20.7682 9.11787 -107.512 -63.8034 153.735
lfemur -35.1345 -8.64627 5.25526
ltibia 66.7248 0 0
lfoot 2.2827 -3.85837 0
ltoes 29.6188 0 0
rfemur -30.7009 -4.8087 2.18756
rtibia 86.0851 0 0
rfoot 15.08 -21.6417 0
rtoes 31.8005 0 0
lowerback 5.41945 0.073154 -1.79236
upperback -1.24887 -0.106604 -1.93241
thorax -4.28893 -0.0266266 -0.909019
lowerneck -6.58642 -6.41152 -2.1689
upperneck -0.685427 -8.49487 5.04595
head 1.23296 -4.1819 1.67529
lclavicle 2.21503e-15 -3.63492e-15 0
lhumerus -7.94845 -19.3308 27.2323
lradius 48.8699 0 0
lwrist 21.2894 0 0
lhand -21.5254 -3.69708 0
lfingers 7.12502 0 0
lthumb 4.86698 26.2258 0
rclavicle 2.21503e-15 -3.63492e-15 0
rhumerus -14.0951 4.72744 -38.966
rradius 96.4969 0 0
rwrist -7.29857 0 0
rhand -26.8177 -32.787 0
rfingers 7.12502 0 0
rthumb -0.243982 -782.759 0
724
root 4.92202 20.6842 9.28811 -106.701 -61.0555 156.251
lfemur -35.2302 -8.10552 4.8221
ltibia 66.4676 0 0
lfoot 1.79373 -3.36493 0
ltoes 29.4972 0 0
rfemur -30.4211 -5.21541 2.56788
rtibia 85.4839 0 0
rfoot 14.4382 -21.9144 0
rtoes 30.7982 0 0
lowerback 5.33859 0.159045 -1.78694
upperback -1.24741 0.011243 -1.97209
thorax -4.23718 0.0321778 -0.956756
lowerneck -6.56161 -6.42421 -2.14929
upperneck -0.726344 -8.50949 5.06033
head 1.21608 -4.18892 1.6776
lclavicle 2.04149e-15 -3.95045e-15 0
lhumerus -8.83086 -19.1885 28.4794
lradius 49.2745 0 0
lwrist 21.1022 0 0
lhand -21.4917 -3.74572 0
lfingers 7.12502 0 0
lthumb 4.89948 26.1763 0
rclavicle 2.04149e-15 -3.95045e-15 0
rhumerus -14.3715 5.54466 -40.2943
rradius 96.194 0 0
rwrist -7.03942 0 0
rhand -26.7357 -32.5434 0
rfingers 7.12502 0 0
rthumb -0.164847 -782.515 0
725
root 4.86259 20.6001 9.45835 -105.89 -58.3076 158.768
lfemur -35.3259 -7.56478 4.38894
ltibia 66.2104 0 0
lfoot 1.30476 -2.8715 0
ltoes 29.3756 0 0
rfemur -30.1413 -5.62211 2.94819
rtibia 84.8826 0 0
rfoot 13.7964 -22.1871 0
rtoes 29.7959 0 0
lowerback 5.25774 0.244936 -1.78151
upperback -1.24596 0.12909 -2.01177
thorax -4.18543 0.0909822 -1.00449
lowerneck -6.5368 -6.4369 -2.12969
upperneck -0.767261 -8.52412 5.07472
head 1.1992 -4.19595 1.67991
lclavicle 1.86795e-15 -4.26598e-15 0
lhumerus -9.71326 -19.0463 29.7264
lradius 49.6791 0 0
lwrist 20.9151 0 0
lhand -21.4581 -3.79436 0
lfingers 7.12502 0 0
lthumb 4.93199 26.1268 0
rclavicle 1.86795e-15 -4.26598e-15 0
rhumerus -14.648 6.36189 -41.6227
rradius 95.8912 0 0
rwrist -6.78026 0 0
rhand -26.6538 -32.2997 0
rfingers 7.12502 0 0
rthumb -0.0857127 -782.271 0
726
root 4.80316 20.5161 9.6286 -105.079 -55.5597 161.284
lfemur -35.4216 -7.02403 3.95577
ltibia 65.9532 0 0
lfoot 0.815783 -2.37807 0
ltoes 29.254 0 0
rfemur -29.8616 -6.02882 3.3285
rtibia 84.2813 0 0
rfoot 13.1546 -22.4598 0
rtoes 28.7936 0 0
lowerback 5.17689 0.330828 -1.77609
upperback -1.24451 0.246938 -2.05144
thorax -4.13369 0.149787 -1.05223
lowerneck -6.51199 -6.44959 -2.11008
upperneck -0.808178 -8.53874 5.0891
head 1.18232 -4.20297 1.68223
lclavicle 1.6944e-15 -4.58151e-15 0
lhumerus -10.5957 -18.904 30.9735
lradius 50.0837 0 0
lwrist 20.7279 0 0
lhand -21.4244 -3.843 0
lfingers 7.12502 0 0
lthumb 4.96449 26.0773 0
rclavicle 1.6944e-15 -4.58151e-15 0
rhumerus -14.9244 7.17911 -42.951
rradius 95.5883 0 0
rwrist -6.52111 0 0
rhand -26.5718 -32.0561 0
rfingers 7.12502 0 0
rthumb -0.006578 -782.027 0
